<svg 
          width="24.999984741210938" 
          height="17.5" fill="none" 
          xmlns="http://www.w3.org/2000/svg">
          <path d="M 24.801136501268324 4.799999892711639 C 17.88043371179792 -1.6011717915534973 7.116763599679977 -1.598828136920929 0.1987948751611234 4.799999892711639 C -0.06136135895423331 5.040624886751175 -0.06643950685731709 5.448046904057264 0.1851229857815037 5.697656273841858 L 1.522622944445653 7.024609446525574 C 1.7624666800809285 7.262890692800283 2.148404225708273 7.267969008535147 2.397622970671675 7.039453387260437 C 8.097622681708236 1.817578673362732 16.90152878660053 1.81640625 22.60270032490867 7.039453387260437 C 22.85191906987207 7.267969008535147 23.237857509569054 7.262500077486038 23.47770124520433 7.024609446525574 L 24.815200812713012 5.697656273841858 C 25.066372671426038 5.448046904057264 25.06129273538368 5.040624886751175 24.801136501268324 4.799999892711639 Z M 12.499966144562768 12.5 C 11.119106881843045 12.5 9.999966239930254 13.619140684604645 9.999966239930254 15 C 9.999966239930254 16.380859315395355 11.119106881843045 17.5 12.499966144562768 17.5 C 13.88082540728249 17.5 14.999966049195281 16.380859315395355 14.999966049195281 15 C 14.999966049195281 13.619140684604645 13.88082540728249 12.5 12.499966144562768 12.5 Z M 20.416762049988765 9.234765768051147 C 15.914418388293148 5.2531251311302185 9.080434989244822 5.257422029972076 4.583169643090345 9.234765768051147 C 4.313638399646862 9.473047014325857 4.305044658170327 9.886718653142452 4.560904030860641 10.139062404632568 L 5.906216276885227 11.466796398162842 C 6.140591267944526 11.698046401143074 6.517935127974687 11.713672112673521 6.767544488237434 11.498047113418579 C 10.046841118932829 8.663281500339508 14.960512544230586 8.669531345367432 18.23199679443329 11.498047113418579 C 18.481606154696035 11.713672112673521 18.858950610772624 11.69843701645732 19.09332560183192 11.466796398162842 L 20.43863695378687 10.139062404632568 C 20.694886941776527 9.886718653142452 20.685902659506453 9.472656399011612 20.416762049988765 9.234765768051147 L 20.416762049988765 9.234765768051147 Z" fill="rgb(0,0,0)"/>
        </svg>