<svg 
          width="23.125" 
          height="20" fill="none" 
          xmlns="http://www.w3.org/2000/svg">
          <path d="M 7.5 11.25 L 5.625 11.25 C 5.2796874940395355 11.25 5 11.529687494039536 5 11.875 L 5 19.375 C 5 19.720312505960464 5.2796874940395355 20 5.625 20 L 7.5 20 C 7.8453125059604645 20 8.125 19.720312505960464 8.125 19.375 L 8.125 11.875 C 8.125 11.529687494039536 7.8453125059604645 11.25 7.5 11.25 Z M 2.5 15 L 0.625 15 C 0.2796874940395355 15 0 15.279687494039536 0 15.625 L 0 19.375 C 0 19.720312505960464 0.2796874940395355 20 0.625 20 L 2.5 20 C 2.8453125059604645 20 3.125 19.720312505960464 3.125 19.375 L 3.125 15.625 C 3.125 15.279687494039536 2.8453125059604645 15 2.5 15 Z M 12.5 7.5 L 10.625 7.5 C 10.279687494039536 7.5 10 7.7796874940395355 10 8.125 L 10 19.375 C 10 19.720312505960464 10.279687494039536 20 10.625 20 L 12.5 20 C 12.845312505960464 20 13.125 19.720312505960464 13.125 19.375 L 13.125 8.125 C 13.125 7.7796874940395355 12.845312505960464 7.5 12.5 7.5 Z M 17.5 3.75 L 15.625 3.75 C 15.279687494039536 3.75 15 4.0296874940395355 15 4.375 L 15 19.375 C 15 19.720312505960464 15.279687494039536 20 15.625 20 L 17.5 20 C 17.845312505960464 20 18.125 19.720312505960464 18.125 19.375 L 18.125 4.375 C 18.125 4.0296874940395355 17.845312505960464 3.75 17.5 3.75 Z M 22.5 0 L 20.625 0 C 20.279687494039536 0 20 0.2796874940395355 20 0.625 L 20 19.375 C 20 19.720312505960464 20.279687494039536 20 20.625 20 L 22.5 20 C 22.845312505960464 20 23.125 19.720312505960464 23.125 19.375 L 23.125 0.625 C 23.125 0.2796874940395355 22.845312505960464 0 22.5 0 Z" fill="rgb(0,0,0)"/>
        </svg>